            <svg
              width="79"
              height="18"
              viewBox="0 0 79 18"
              fill="none"
              xmlns="http://www.w3.org/2000/svg"
            >
              <path
                fillRule="evenodd"
                clipRule="evenodd"
                d="M3.29353 3.16787C1.77935 4.69795 0.928711 6.77339 0.928711 8.93748V17.3497H4.72281V8.93748H4.72332C4.72332 7.79046 5.17424 6.69064 5.97668 5.87951C6.77913 5.06855 7.86757 4.61284 9.00253 4.61284C10.1375 4.61284 11.2257 5.06855 12.0283 5.87951C12.8306 6.69047 13.2816 7.79046 13.2816 8.93748H13.2819V17.3705H17.0769V8.92619H17.0764C17.0733 6.76615 16.2231 4.69526 14.7115 3.1677C13.1973 1.63763 11.1437 0.777954 9.00237 0.777954C6.86101 0.777954 4.80754 1.63763 3.29353 3.16787Z"
                fill="black"
              ></path>
              <path
                d="M70.9115 17.3705C69.6078 17.3705 68.4522 17.1544 67.4448 16.7221C66.4572 16.2703 65.6177 15.6612 64.9263 14.895C64.2547 14.1286 63.7411 13.2445 63.3855 12.2424C63.0498 11.2208 62.8818 10.1402 62.8818 9.00058C62.8818 7.8217 63.0695 6.73124 63.4448 5.72921C63.8202 4.72717 64.3535 3.86267 65.0448 3.13569C65.7362 2.38908 66.5658 1.80947 67.5337 1.39686C68.5017 0.984251 69.5881 0.777954 70.7929 0.777954C72.0374 0.777954 73.1436 1.00391 74.1115 1.45581C75.0992 1.9077 75.9288 2.54627 76.6003 3.37147C77.2721 4.19668 77.7658 5.18889 78.0818 6.34812C78.4177 7.50733 78.5658 8.78444 78.5263 10.1794H66.9707C67.0103 11.3583 67.3855 12.3308 68.0966 13.0972C68.8078 13.8437 69.7362 14.2171 70.8818 14.2171C71.5535 14.2171 72.1559 14.0894 72.6892 13.834C73.2424 13.5588 73.7263 13.0775 74.1411 12.3898H78.3485C78.1313 12.9793 77.8251 13.5686 77.43 14.1581C77.0547 14.7476 76.5609 15.2879 75.9485 15.7791C75.3559 16.2505 74.6448 16.6338 73.8152 16.9285C72.9855 17.2231 72.0177 17.3705 70.9115 17.3705ZM70.7041 3.75461C70.2892 3.75461 69.8744 3.83318 69.4596 3.99037C69.0448 4.12791 68.6596 4.35387 68.3041 4.66822C67.9684 4.96295 67.6818 5.33625 67.4448 5.78815C67.2078 6.24004 67.0596 6.77055 67.0004 7.37963H74.3781C74.3584 6.7116 74.2399 6.15163 74.0226 5.69973C73.8054 5.22819 73.5189 4.85487 73.1633 4.57981C72.8276 4.28509 72.4424 4.07878 72.0078 3.9609C71.5929 3.82336 71.1584 3.75461 70.7041 3.75461Z"
                fill="black"
              ></path>
              <path
                d="M56.1263 12.8721L59.8596 0.926025H63.9189L58.2004 17.0742H53.9041L48.0967 0.926025H52.393L56.1263 12.8721Z"
                fill="black"
              ></path>
              <path
                d="M44.4541 9.76438C43.3085 9.88181 42.3307 10.0091 41.5208 10.1461C40.711 10.2831 40.0492 10.4594 39.5356 10.6748C39.0221 10.8705 38.6467 11.1251 38.4096 11.4384C38.1726 11.732 38.0541 12.0943 38.0541 12.5249C38.0541 13.0926 38.2813 13.5821 38.7356 13.9934C39.1899 14.4045 39.8813 14.61 40.8096 14.61C42.0936 14.61 43.0221 14.2577 43.5948 13.5528C44.1677 12.848 44.4541 11.8495 44.4541 10.5574V9.76438ZM44.78 14.9624C44.2073 15.8043 43.4962 16.4211 42.6467 16.8126C41.817 17.1846 40.7999 17.3705 39.5948 17.3705C38.8245 17.3705 38.0936 17.2628 37.4022 17.0474C36.711 16.8322 36.0985 16.5286 35.5652 16.1371C35.0517 15.7455 34.6369 15.2658 34.3208 14.6981C34.0048 14.1107 33.8467 13.4646 33.8467 12.7599C33.8467 11.8202 34.0936 11.0369 34.5874 10.4104C35.101 9.76438 35.8122 9.23578 36.7208 8.82462C37.6492 8.41348 38.7554 8.08065 40.0393 7.82613C41.343 7.57161 42.7751 7.35625 44.3356 7.18006V6.88638C44.3356 6.27945 44.2566 5.77041 44.0985 5.35927C43.9406 4.92855 43.7233 4.58592 43.4467 4.33141C43.1899 4.07689 42.8739 3.9007 42.4985 3.8028C42.1233 3.68533 41.7184 3.62659 41.2837 3.62659C40.3948 3.62659 39.6541 3.83216 39.0615 4.24332C38.4888 4.65446 38.1825 5.30053 38.143 6.18155H34.3208C34.3999 5.39843 34.617 4.68382 34.9726 4.03773C35.348 3.37207 35.8418 2.80431 36.4541 2.33443C37.0862 1.84498 37.817 1.4632 38.6467 1.18909C39.4962 0.915006 40.4245 0.777954 41.4319 0.777954C42.4196 0.777954 43.3381 0.895421 44.1874 1.13037C45.0369 1.34573 45.7776 1.71772 46.4096 2.24632C47.0418 2.77493 47.5356 3.48954 47.8911 4.39015C48.2467 5.27117 48.4245 6.37735 48.4245 7.70867C48.4245 7.82613 48.4147 8.0415 48.3948 8.35475C48.3948 8.64843 48.3948 8.99104 48.3948 9.38261C48.3948 9.77418 48.385 10.1854 48.3652 10.616C48.3652 11.0271 48.3652 11.4089 48.3652 11.7614C48.3652 13.0144 48.4048 14.0325 48.4837 14.8156C48.5628 15.5987 48.6813 16.4713 48.8393 17.1369H45.0763C45.017 16.8824 44.9578 16.4308 44.8985 16.0784C44.8591 15.726 44.8196 15.354 44.78 14.9624Z"
                fill="black"
              ></path>
              <path
                d="M28.5145 5.94662C28.3565 5.28096 27.9812 4.74256 27.3886 4.33141C26.796 3.9007 25.996 3.68533 24.9886 3.68533C24.159 3.68533 23.4972 3.82238 23.0034 4.09647C22.5294 4.35099 22.2923 4.72298 22.2923 5.21243C22.2923 5.64315 22.4602 6.01514 22.796 6.3284C23.1319 6.62207 23.7145 6.85701 24.5442 7.03321L26.6775 7.50309C27.5071 7.6793 28.2775 7.87508 28.9886 8.09044C29.7194 8.30581 30.3516 8.58969 30.8849 8.9421C31.438 9.27493 31.8726 9.70564 32.1886 10.2343C32.5046 10.7628 32.6627 11.4384 32.6627 12.2606C32.6627 13.0633 32.4652 13.778 32.0701 14.4045C31.6948 15.031 31.1812 15.5694 30.5294 16.0196C29.8972 16.4504 29.1565 16.7831 28.3071 17.0181C27.4578 17.2531 26.5689 17.3705 25.6405 17.3705C24.6331 17.3705 23.6948 17.2433 22.8257 16.9888C21.9763 16.7538 21.2257 16.4014 20.5738 15.9316C19.9417 15.4421 19.4183 14.8547 19.0034 14.1695C18.6083 13.4646 18.3615 12.662 18.2627 11.7614H22.2034C22.322 12.5249 22.6578 13.1612 23.2108 13.6703C23.7837 14.1793 24.6331 14.4338 25.759 14.4338C26.7071 14.4338 27.438 14.2772 27.9516 13.9639C28.4849 13.6507 28.7516 13.2101 28.7516 12.6424C28.7516 12.055 28.4849 11.6243 27.9516 11.3503C27.4182 11.0762 26.7763 10.8608 26.0257 10.7042L23.6553 10.2049C22.8849 10.0483 22.1837 9.85247 21.5516 9.61755C20.9194 9.36304 20.3763 9.04978 19.922 8.67779C19.4874 8.30581 19.1516 7.86529 18.9145 7.35625C18.6775 6.82764 18.559 6.20114 18.559 5.47674C18.559 4.77192 18.7368 4.13563 19.0923 3.56787C19.4479 2.98052 19.9319 2.48126 20.5442 2.07012C21.1565 1.65898 21.8578 1.34573 22.6479 1.13037C23.4578 0.895421 24.3071 0.777954 25.196 0.777954C26.0454 0.777954 26.875 0.87585 27.6849 1.07163C28.4948 1.26741 29.2157 1.58067 29.8479 2.01139C30.4997 2.42253 31.043 2.96093 31.4775 3.62659C31.912 4.27268 32.1985 5.04601 32.3368 5.94662H28.5145Z"
                fill="black"
              ></path>
            </svg>